*******************************************************************************
               Paranormal Haunting - Curse of the Blue Moon Inn
*******************************************************************************

-------------------------------------------------------------------------------
                              General Information
-------------------------------------------------------------------------------
Type.................: Movie
Platform.............: AVI



Video Format.........: AVI
Video Bitrate........: 1411
Resolution...........: 720 x 404
Color................: 8 bit
FPS..................: 29.97
Source...............: DVD 16x9
Original Format......: NTSC
Genre................: Horror
IMDb Rating..........: 4
Movie Information....: http://www.imdb.com/title/tt2046130/

-------------------------------------------------------------------------------
                               Post Information
-------------------------------------------------------------------------------
Posted by............: RadioResearch
Posted on............: 2/2/2013

-------------------------------------------------------------------------------
                                 Release Notes
-------------------------------------------------------------------------------
High in the peak stands the Blue Moon Inn, the home of Matthew Hopkins for as 
long as anybody cares to remember. Here is the place where once every century 
the moon appears to turn blue and all-manner of strange and terrifying events 
are said to be unleashed upon the land. The time has come and with it a small 
group of interested individuals. An astronomer, an astrologer and a documentary 
filmmaker all arrive unaware of the evils that will befall them. A nightmare 
unfolds upon each one until the final shocking conclusion. Prepare for 
witchcraft, occult rituals and answers to age-old mysteries. Prepare yourselves 
for the Blue Moon.

I had to check twice, however the film really is supposed to be blurry and dreamy in parts
and also viewed through the lens of a camera.  This is an interesting little Indie film,
and hopefully will not be too irritating with its use of blurry sequences.

Enjoy!

RadioResearch

General
Complete name                            : G:AVIParanormal Haunting - The Curse of the Blue Moon Inn (2012)Paranormal Haunt_Title1.avi
Format                                   : AVI
Format/Info                              : Audio Video Interleave
File size                                : 989 MiB
Duration                                 : 1h 37mn
Overall bit rate                         : 1 411 Kbps
Movie name                               : Paranormal_Haunt
Writing application                      : MEncoder 5.0
ID                                       : 0
Format                                   : MPEG-4 Visual
Format profile                           : Simple@L1
Format settings, BVOP                    : No
Format settings, QPel                    : No
Format settings, GMC                     : No warppoints
Format settings, Matrix                  : Default (H.263)
Codec ID                                 : DX50
Codec ID/Hint                            : DivX 5
Duration                                 : 1h 37mn
Bit rate                                 : 1 181 Kbps
Width                                    : 720 pixels
Height                                   : 404 pixels
Display aspect ratio                     : 16:9
Frame rate                               : 29.970 fps
Color space                              : YUV
Chroma subsampling                       : 4:2:0
Bit depth                                : 8 bits
Scan type                                : Progressive
Compression mode                         : Lossy
Bits/(Pixel*Frame)                       : 0.135
Stream size                              : 827 MiB (84%)
Writing library                          : Lavc54.71.100

Audio
ID                                       : 1
Format                                   : MPEG Audio
Format version                           : Version 1
Format profile                           : Layer 2
Codec ID                                 : 50
Duration                                 : 1h 37mn
Bit rate mode                            : Constant
Bit rate                                 : 224 Kbps
Channel(s)                               : 2 channels
Sampling rate                            : 48.0 KHz
Compression mode                         : Lossy
Stream size                              : 157 MiB (16%)
Alignment                                : Split accross interleaves
Interleave, duration                     : 500 ms (14.98 video frames)
Interleave, preload duration             : 500 ms



-------------------------------------------------------------------------------
Generated with Cool NFO Creator - http://fly.to/coolbeans
-------------------------------------------------------------------------------
